# xmcd
#
# Track frame offsets:
# 150
# 1499
# 23588
# 45422
# 70261
# 98925
# 120427
# 141681
# 168965
# 191383
# 211837
# 231961
#
# Disc length: 3405 seconds
#
#
# Revision: 0
# Processed by: cddbd v1.5.1PL0 Copyright (c) Steve Scherf et al.
# Submitted via: FreeRIP 2.931 
#
DISCID=9b0d4b0c
DTITLE=Big Gilson - Live In Texas
DYEAR=1999
DGENRE=Blues
TTITLE0=Introduction
TTITLE1=Hey Now Baby
TTITLE2=The Trill Is Gone
TTITLE3=Everyday I Have The Blues
TTITLE4=Sweet Home Chicago
TTITLE5=Evil Way
TTITLE6=Let Me Love You Baby
TTITLE7=It Hurts Me Too
TTITLE8=I Just Wanna Make Love To You
TTITLE9=Bone Head
TTITLE10=Cab Driver Blues
TTITLE11=Green's Boogie
EXTD=
EXTT0=
EXTT1=
EXTT2=
EXTT3=
EXTT4=
EXTT5=
EXTT6=
EXTT7=
EXTT8=
EXTT9=
EXTT10=
EXTT11=
PLAYORDER=
